<?xml version="1.0" encoding="UTF-8"?>
<svg width="128" height="128" viewBox="0 0 128 128" fill="none" xmlns="http://www.w3.org/2000/svg">
    <!-- 背景圆 -->
    <circle cx="64" cy="64" r="60" fill="#3B1B5E"/>
    
    <!-- 花朵 -->
    <g transform="translate(64 64) scale(0.8)">
        <!-- 花瓣 -->
        <path d="M0,-30 C20,-30 30,-20 30,0 C30,20 20,30 0,30 C-20,30 -30,20 -30,0 C-30,-20 -20,-30 0,-30" fill="#FFFFFF" opacity="0.9"/>
        <path d="M-21.21,-21.21 C-7.07,-35.35 7.07,-35.35 21.21,-21.21 C35.35,-7.07 35.35,7.07 21.21,21.21 C7.07,35.35 -7.07,35.35 -21.21,21.21 C-35.35,7.07 -35.35,-7.07 -21.21,-21.21" fill="#FFFFFF" opacity="0.9"/>
        
        <!-- 花蕊 -->
        <circle cx="0" cy="0" r="10" fill="#FFD700"/>
    </g>
    
    <!-- 闪电 -->
    <path d="M85,35 L60,65 L75,70 L43,95 L50,70 L35,65 L55,35" fill="#FFD700"/>
</svg>
